<?xml version="1.0" encoding="utf-8"?>
<!-- Generator: Adobe Illustrator 16.0.0, SVG Export Plug-In . SVG Version: 6.00 Build 0)  -->
<!DOCTYPE svg PUBLIC "-//W3C//DTD SVG 1.1//EN" "http://www.w3.org/Graphics/SVG/1.1/DTD/svg11.dtd">
<svg version="1.1" id="Layer_1" xmlns="http://www.w3.org/2000/svg" xmlns:xlink="http://www.w3.org/1999/xlink" x="0px" y="0px"
	 width="106.686px" height="39.945px" viewBox="40.004 1.212 106.686 39.945" enable-background="new 40.004 1.212 106.686 39.945"
	 xml:space="preserve">
<g id="图层_1">
</g>
<path fill="#FFFFFF" d="M96.434,15.877c0.078-0.117,0.078-0.43-0.039-0.508c-0.392,0.039-0.783,0.039-1.291,0.039
	c-0.43,0-0.979,0-1.446-0.039c-0.117,0.078-0.156,0.352-0.039,0.508l0.313,0.079c0.195,0.078,0.391,0.117,0.391,0.234
	c0,0.156-0.274,0.899-0.352,1.134c-0.665,1.681-1.447,3.48-2.112,5.084c-0.078-0.195-0.273-0.626-0.625-1.408l-0.665-1.408
	c-0.078-0.235-0.117-0.313-0.117-0.352c0-0.078,0.196-0.469,0.313-0.743c0.195-0.352,0.547-1.056,0.86-1.642
	c0.469-0.821,0.586-0.821,1.056-0.939l0.391-0.078c0.117-0.078,0.078-0.43,0-0.508c-0.352,0.039-0.86,0.039-1.408,0.039
	c-0.469,0-0.978,0-1.369-0.039c-0.118,0.078-0.157,0.391-0.039,0.508l0.508,0.078c0.234,0.039,0.273,0.079,0.273,0.196
	c0,0.078-0.156,0.508-0.391,1.017l-0.118,0.274c-0.156,0.313-0.273,0.665-0.43,0.938c-0.117-0.235-0.313-0.625-0.43-0.938
	l-0.43-0.978c-0.078-0.157-0.117-0.313-0.117-0.43c0-0.079,0.195-0.157,0.391-0.196l0.234-0.039
	c0.118-0.078,0.118-0.469-0.039-0.508c-0.352,0.039-0.899,0.039-1.603,0.039c-0.626,0-1.173,0-1.76-0.039
	c-0.157,0.078-0.196,0.391-0.039,0.508h0.156c0.547,0.078,0.625,0.156,0.938,0.86l1.33,2.933c0.039,0.156,0.156,0.43,0.156,0.508
	s-0.039,0.274-0.156,0.469l-0.195,0.391c-0.235,0.508-0.548,1.174-0.704,1.447c-0.156-0.353-0.391-0.705-0.782-1.564l-1.369-3.089
	c-0.43-0.978-0.704-1.643-0.704-1.721c0-0.079,0.079-0.157,0.352-0.196l0.274-0.039c0.117-0.078,0.078-0.43-0.039-0.508
	c-0.547,0.039-1.056,0.039-1.682,0.039c-0.704,0-1.291,0-1.799-0.039c-0.156,0.078-0.156,0.352-0.039,0.508l0.352,0.078
	c0.469,0.078,0.547,0.157,0.899,0.978l2.268,4.928c0.469,1.056,1.017,2.308,1.251,2.894c0.117,0.078,0.234,0.117,0.391,0.117
	c0.195,0,0.391-0.039,0.469-0.117c0.234-0.469,0.391-0.859,0.586-1.291l0.625-1.367c0.196-0.393,0.352-0.705,0.47-0.938
	c0.117,0.196,0.313,0.625,0.508,1.058l0.586,1.328c0.156,0.391,0.391,0.899,0.547,1.213c0.118,0.077,0.235,0.116,0.391,0.116
	c0.196,0,0.391-0.039,0.469-0.116c0.665-1.8,2.189-5.28,2.895-6.922c0.391-0.86,0.625-1.33,0.781-1.564
	c0.078-0.117,0.313-0.235,0.625-0.313L96.434,15.877z"/>
<path fill="#FFFFFF" d="M100.148,17.441c0-1.291,0.078-1.408,0.703-1.525l0.392-0.078c0.116-0.078,0.116-0.391,0-0.508
	c-0.743,0.039-1.447,0.039-2.112,0.039c-0.664,0-1.367,0-2.111-0.039c-0.117,0.078-0.117,0.391,0,0.508l0.392,0.078
	c0.626,0.118,0.743,0.196,0.743,1.525v5.124c0,1.291-0.078,1.408-0.743,1.524l-0.392,0.078c-0.117,0.078-0.117,0.392,0,0.508
	c0.744-0.039,1.447-0.039,2.111-0.039c0.665,0,1.33,0,2.073,0.039c0.116-0.077,0.116-0.391,0.039-0.508l-0.392-0.078
	c-0.625-0.116-0.703-0.194-0.703-1.524V17.441L100.148,17.441z"/>
<path fill="#FFFFFF" d="M109.26,22.018c0-1.525-1.095-2.347-1.955-2.815l-0.938-0.508c-0.703-0.352-1.25-0.938-1.25-1.604
	c0-0.704,0.508-1.291,1.407-1.291c1.017,0,1.604,1.017,1.838,1.721c0.117,0.156,0.47,0.117,0.548-0.039
	c0-0.938-0.156-1.682-0.234-1.995c-0.157-0.039-0.313-0.039-0.47-0.117c-0.548-0.156-1.135-0.234-1.564-0.234
	c-2.033,0-3.244,1.095-3.244,2.659c0,1.369,1.094,2.229,2.11,2.737c0.82,0.43,1.877,1.094,1.877,2.229
	c0,0.704-0.469,1.408-1.524,1.408c-1.174,0-2.111-1.291-2.385-2.189c-0.117-0.156-0.432-0.156-0.549,0.039
	c0,0.938,0.195,1.955,0.432,2.269c0.313,0.155,1.094,0.547,2.385,0.547C107.852,24.832,109.26,23.698,109.26,22.018L109.26,22.018z"
	/>
<path fill="#FFFFFF" d="M112.115,22.604c0,1.291-0.079,1.369-0.705,1.486l-0.43,0.078c-0.117,0.078-0.117,0.391,0,0.508
	c0.781-0.039,1.485-0.039,2.188-0.039c0.509,0,1.174,0.078,1.838,0.078c1.447,0,2.582-0.195,3.521-0.664
	c1.604-0.783,2.504-2.308,2.504-4.146c0-1.76-1.018-3.402-2.816-4.028c-0.979-0.352-2.111-0.469-3.246-0.469
	c-1.484,0-2.541,0.039-3.715,0.117c-0.156,0-0.156,0.431-0.039,0.509l0.273,0.039c0.666,0.078,0.666,0.352,0.666,1.643v4.888
	H112.115z M114.109,17.011c0-0.43,0-0.704,0.078-0.821c0.078-0.117,0.352-0.195,0.742-0.195c2.504,0,3.832,1.486,3.832,3.989
	c0,1.877-0.82,4.028-3.246,4.028c-0.509,0-0.898-0.117-1.173-0.392c-0.233-0.313-0.272-0.782-0.272-1.563v-5.044h0.039V17.011z"/>
<path fill="#FFFFFF" d="M127.953,15.173c-2.895,0-4.967,2.151-4.967,4.888c0,2.933,2.033,4.771,4.849,4.771
	c3.011,0,5.045-1.838,5.045-4.849C132.841,17.128,130.846,15.173,127.953,15.173L127.953,15.173z M130.611,20.14
	c0,2.269-0.703,4.028-2.541,4.028c-2.27,0-2.855-2.738-2.855-4.419c0-2.307,0.9-3.911,2.62-3.911
	C129.596,15.838,130.611,17.754,130.611,20.14L130.611,20.14z"/>
<path fill="#FFFFFF" d="M135.07,15.916c0.547,0.118,0.859,0.313,0.859,1.095c0,0.743-0.039,1.877-0.078,2.815
	c-0.078,1.33-0.117,2.542-0.195,3.207c-0.078,0.861-0.156,0.939-0.86,1.057l-0.272,0.039c-0.117,0.078-0.117,0.43,0.039,0.469
	c0.547-0.039,1.095-0.039,1.523-0.039c0.549,0,1.135,0,1.643,0.039c0.117-0.078,0.157-0.391,0.039-0.469l-0.547-0.078
	c-0.547-0.078-0.625-0.273-0.625-0.979c0-0.82,0-2.229,0.039-3.128c0-0.704,0.039-1.33,0.078-2.229h0.039
	c0.781,1.799,2.502,5.279,3.012,7c0.077,0.039,0.233,0.078,0.353,0.078c0.116,0,0.194-0.039,0.272-0.078
	c0.898-2.346,2.033-4.692,3.051-6.921h0.039v1.603l0.039,3.637c0,0.86,0,1.018-0.627,1.096l-0.43,0.039
	c-0.156,0.078-0.117,0.431,0.039,0.47c0.665-0.039,1.447-0.039,2.072-0.039c0.664,0,1.291,0,1.916,0.039
	c0.156-0.039,0.156-0.353,0.039-0.47l-0.43-0.039c-0.548-0.078-0.586-0.392-0.625-1.057c-0.078-1.759-0.117-3.246-0.117-6.139
	c0-0.743,0.272-0.899,0.858-1.017l0.392-0.078c0.117-0.156,0.117-0.391-0.039-0.508c-0.508,0.039-1.133,0.039-1.604,0.039
	c-0.431,0-0.742,0.039-1.367-0.039c-0.313,1.212-0.666,1.955-1.33,3.363l-0.705,1.525c-0.392,0.821-0.586,1.251-0.781,1.604
	c-0.195-0.352-0.704-1.212-0.821-1.525l-0.899-1.955c-0.625-1.33-1.095-2.151-1.095-3.011c-0.509,0.039-0.899,0.039-1.368,0.039
	c-0.666,0-1.291,0-1.761-0.039c-0.155,0.039-0.155,0.391-0.039,0.508L135.07,15.916z"/>
<g>
	<path fill="#FFFFFF" d="M90.719,34.354c-0.375,0.219-0.719,0.392-1.031,0.516c-0.344,0.157-0.609,0.251-0.797,0.281
		c-0.25,0.031-0.313-0.016-0.188-0.141c0.813-0.499,1.406-1.015,1.781-1.547c0.344-0.499,0.563-1.062,0.656-1.688h-2.344
		l-0.094-0.328h2.484c0.031-0.375,0.063-0.827,0.094-1.359h-0.563c-0.75,0.75-1.219,1.142-1.406,1.172
		c-0.094-0.03-0.078-0.141,0.047-0.328c0.406-0.75,0.766-1.688,1.078-2.813l1.219,0.516c0.219,0.157,0.234,0.313,0.047,0.469
		l-0.188,0.094c-0.094,0.157-0.25,0.345-0.469,0.563h1.969l0.703-0.891l0.844,0.844c0.156,0.188,0.141,0.313-0.047,0.375h-1.922
		c-0.063,0.469-0.125,0.922-0.188,1.359h0.891l0.656-0.938l0.984,0.891c0.188,0.188,0.156,0.313-0.094,0.375h-2.484l-0.141,0.469
		c1.094,0.094,1.797,0.375,2.109,0.844c0.313,0.563,0.219,0.907-0.281,1.031c-0.313,0.063-0.547-0.047-0.703-0.328
		c-0.188-0.344-0.344-0.609-0.469-0.797c-0.156-0.25-0.391-0.452-0.703-0.609c-0.125,0.375-0.234,0.641-0.328,0.797
		c-0.125,0.219-0.297,0.453-0.516,0.703l0.891,0.516h4.172l0.469-0.703l1.266,0.938c0.25,0.157,0.219,0.328-0.094,0.516
		l-0.094,0.047v3.234c0,0.188-0.047,0.312-0.141,0.375c-0.125,0.063-0.328,0.109-0.609,0.141c-0.438,0.063-0.656-0.017-0.656-0.234
		v-0.328h-4.406v0.328c0,0.156-0.078,0.265-0.234,0.328c-0.594,0.156-0.922,0.203-0.984,0.141c-0.125-0.031-0.188-0.11-0.188-0.234
		V34.354z M92.125,34.729v1.453h4.406v-1.453H92.125z M92.125,36.51v1.547h4.406V36.51H92.125z M96.438,32.947v0.516
		c0,0.188-0.078,0.298-0.234,0.328c-0.281,0.063-0.563,0.094-0.844,0.094c-0.156,0-0.234-0.077-0.234-0.234v-4.922l1.313,0.75h1.547
		l0.469-0.75l1.125,1.031c0.156,0.157,0.141,0.313-0.047,0.469l-0.141,0.094v2.906c0,0.157-0.031,0.251-0.094,0.281
		c-0.594,0.188-0.922,0.266-0.984,0.234c-0.156,0-0.234-0.063-0.234-0.188v-0.609H96.438z M96.438,29.807v2.813h1.641v-2.813H96.438
		z"/>
	<path fill="#FFFFFF" d="M105.419,31.354l2.063-0.188c0.344,0.031,0.344,0.125,0,0.281c-0.156,0.063-0.281,0.094-0.375,0.094
		c-0.563,0.157-1.125,0.298-1.688,0.422v0.563c0,0.219-0.203,0.359-0.609,0.422c-0.156,0.031-0.297,0.031-0.422,0
		c-0.125-0.03-0.188-0.094-0.188-0.188v-0.516c-0.25,0.063-0.641,0.157-1.172,0.281l-0.188,0.234c-0.156,0.188-0.313,0.188-0.469,0
		l-0.703-1.078c0.719-0.03,1.563-0.094,2.531-0.188v-0.656h-1.969l-0.188-0.328h2.156v-0.656h-2.25l-0.141-0.328h2.391V28.26
		l1.359,0.094c0.219,0.063,0.234,0.219,0.047,0.469l-0.188,0.141v0.563h0.422l0.563-0.75l0.844,0.75
		c0.156,0.157,0.141,0.266-0.047,0.328h-1.781v0.656h0.469l0.469-0.563l0.797,0.656c0.156,0.125,0.141,0.204-0.047,0.234h-1.688
		V31.354z M103.263,36.322c0.125-0.405,0.234-0.344,0.328,0.188c0.031,0.188,0.047,0.313,0.047,0.375
		c0.063,0.875-0.109,1.483-0.516,1.828c-0.438,0.312-0.813,0.281-1.125-0.094c-0.188-0.406-0.109-0.733,0.234-0.984l0.516-0.375
		C102.997,37.072,103.169,36.761,103.263,36.322z M102.794,35.525h7.266v-0.938h-6.938l-0.188-0.328h7.125v-0.797h-7.125
		l-0.188-0.328h7.266l0.469-0.656l1.172,0.891c0.219,0.188,0.188,0.359-0.094,0.516l-0.188,0.094v1.875
		c0,0.219-0.141,0.359-0.422,0.422c-0.25,0.063-0.453,0.094-0.609,0.094c-0.188,0-0.281-0.077-0.281-0.234v-0.281h-7.078
		L102.794,35.525z M105.653,36.979v0.844c0,0.188,0.109,0.281,0.328,0.281c0.656,0.03,1.328,0.03,2.016,0
		c0.438-0.031,0.734-0.109,0.891-0.234c0.125-0.094,0.266-0.297,0.422-0.609c0.094-0.218,0.219-0.484,0.375-0.797
		c0.094-0.156,0.156-0.124,0.188,0.094l-0.047,1.125c0,0.125,0.063,0.234,0.188,0.328c0.531,0.375,0.547,0.672,0.047,0.891
		c-0.219,0.094-0.453,0.141-0.703,0.141c-0.563,0.063-1.438,0.094-2.625,0.094c-0.531,0-1.109-0.047-1.734-0.141
		c-0.375-0.063-0.563-0.359-0.563-0.891v-1.969l1.359,0.188c0.219,0.094,0.234,0.266,0.047,0.516L105.653,36.979z M106.216,35.994
		c0.906,0.063,1.531,0.298,1.875,0.703c0.281,0.5,0.188,0.86-0.281,1.078c-0.281,0.094-0.516-0.063-0.703-0.469
		c-0.188-0.438-0.406-0.75-0.656-0.938C106.106,36.182,106.028,36.058,106.216,35.994z M111.185,31.729l0.703-0.797l0.938,0.797
		c0.156,0.157,0.125,0.266-0.094,0.328h-2.672v0.469c0,0.125-0.125,0.219-0.375,0.281l-0.188,0.047
		c-0.375,0.063-0.563,0-0.563-0.188v-0.609h-1.922l-0.188-0.328h2.109v-0.891h-1.172l-0.141-0.328h1.313v-0.656h-1.266l-0.141-0.328
		h1.406V28.26l1.313,0.141c0.313,0.094,0.344,0.251,0.094,0.469l-0.281,0.141v0.516h0.984l0.656-0.797l0.938,0.797
		c0.188,0.157,0.156,0.266-0.094,0.328h-2.484v0.656h0.984l0.563-0.609l0.797,0.656c0.156,0.125,0.141,0.219-0.047,0.281h-2.297
		v0.891H111.185z M111.794,38.807c-0.156-0.031-0.281-0.125-0.375-0.281c-0.063-0.094-0.125-0.251-0.188-0.469
		c-0.219-0.593-0.5-1.015-0.844-1.266c-0.313-0.218-0.25-0.297,0.188-0.234c1.156,0.219,1.844,0.656,2.063,1.313
		c0.094,0.25,0.047,0.484-0.141,0.703C112.31,38.79,112.075,38.869,111.794,38.807z"/>
	<path fill="#FFFFFF" d="M119.89,30.135c0.531,0.251,0.859,0.516,0.984,0.797c0.063,0.094,0.047,0.204-0.047,0.328
		c-0.188,0.281-0.313,0.5-0.375,0.656c-0.031,0.094-0.047,0.172-0.047,0.234c-0.094,0.438-0.266,0.922-0.516,1.453
		c-0.469,1.063-1.016,1.985-1.641,2.766c-0.469,0.563-0.844,0.907-1.125,1.031c-0.438,0.188-0.953-0.063-1.547-0.75
		c-0.719-0.844-0.859-1.905-0.422-3.188c0.969-2.781,2.719-4.031,5.25-3.75c1.375,0.157,2.453,0.485,3.234,0.984
		c0.938,0.594,1.484,1.376,1.641,2.344c0.219,1.313-0.172,2.438-1.172,3.375c-0.719,0.688-1.766,1.172-3.141,1.453
		c-0.781,0.156-1.203,0.203-1.266,0.141s0.031-0.124,0.281-0.188c0.688-0.188,1.25-0.405,1.688-0.656
		c0.594-0.312,1.078-0.719,1.453-1.219c0.719-0.938,0.906-2.109,0.563-3.516c-0.219-0.938-0.828-1.609-1.828-2.016
		C121.233,30.166,120.577,30.072,119.89,30.135z M118.999,30.322c-1,0.281-1.813,1.109-2.438,2.484
		c-0.313,0.72-0.469,1.47-0.469,2.25c0,0.345,0.031,0.594,0.094,0.75c0.094,0.281,0.25,0.406,0.469,0.375
		c0.5-0.063,0.984-0.531,1.453-1.406c0.313-0.593,0.578-1.249,0.797-1.969l0.375-1.219c0.125-0.438,0.156-0.75,0.094-0.938
		S119.187,30.354,118.999,30.322z"/>
	<path fill="#FFFFFF" d="M129.025,32.572c0.063,0.75-0.109,1.297-0.516,1.641c-0.531,0.281-0.906,0.188-1.125-0.281
		c-0.156-0.281-0.016-0.64,0.422-1.078c0.313-0.405,0.484-0.844,0.516-1.313c-0.031-0.719,0.078-0.844,0.328-0.375
		C128.869,31.698,128.994,32.167,129.025,32.572z M130.619,32.104c0.406-0.469,0.766-1.047,1.078-1.734l0.984,1.078
		c0.188,0.251,0.156,0.406-0.094,0.469h-0.469c-0.5,0.251-1,0.485-1.5,0.703c-0.031,1.125-0.141,2.126-0.328,3
		c1.219,0.313,1.938,0.828,2.156,1.547c0.094,0.313,0.078,0.579-0.047,0.797c-0.219,0.281-0.516,0.375-0.891,0.281
		c-0.156-0.094-0.297-0.391-0.422-0.891c-0.188-0.687-0.469-1.188-0.844-1.5c-0.406,1.188-1.063,2.172-1.969,2.953
		c-0.406,0.344-0.672,0.499-0.797,0.469c-0.063-0.063-0.047-0.157,0.047-0.281c0.125-0.094,0.297-0.298,0.516-0.609
		c0.375-0.531,0.688-1.172,0.938-1.922c0.219-0.625,0.359-1.469,0.422-2.531c0.094-1.155,0.047-2.969-0.141-5.438l1.734,0.188
		c0.219,0.094,0.234,0.251,0.047,0.469l-0.422,0.281V32.104z M134.557,30.088h-2.906l-0.094-0.328h5.016l0.844-1.125l1.078,1.031
		c0.188,0.219,0.156,0.359-0.094,0.422h-2.438v7.641c0,0.469-0.234,0.827-0.703,1.078c-0.563,0.312-0.906,0.375-1.031,0.188
		c-0.031-0.063-0.047-0.172-0.047-0.328c0-0.157-0.016-0.266-0.047-0.328c-0.438-0.251-0.875-0.469-1.313-0.656
		c-0.25-0.094-0.063-0.141,0.563-0.141c0.219,0.031,0.484,0.047,0.797,0.047c0.25,0,0.375-0.124,0.375-0.375V30.088z"/>
</g>
<g>
	<path fill="#FFFFFF" stroke="#FFFFFF" stroke-width="0.25" stroke-miterlimit="10" d="M94.713,10.935l-0.307,1.131h-3.496v-0.124
		c0.381,0,0.571-0.145,0.571-0.436V8.309c0-0.282-0.19-0.423-0.571-0.423V7.762h1.807v0.124c-0.381,0-0.572,0.146-0.572,0.436v3.218
		c0,0.173,0.266,0.26,0.793,0.26c0.504,0,0.859-0.056,1.07-0.166c0.209-0.11,0.393-0.343,0.549-0.698H94.713z"/>
	<path fill="#FFFFFF" stroke="#FFFFFF" stroke-width="0.25" stroke-miterlimit="10" d="M101.176,7.886
		c-0.408,0-0.611,0.137-0.611,0.409v2.327c0,0.555-0.188,0.964-0.564,1.229c-0.295,0.204-0.668,0.306-1.119,0.306
		c-0.473,0-0.844-0.11-1.117-0.332c-0.33-0.269-0.494-0.688-0.494-1.261V8.295c0-0.272-0.191-0.409-0.572-0.409V7.762h1.807v0.124
		c-0.381,0-0.572,0.13-0.572,0.39v2.354c0,0.386,0.074,0.676,0.221,0.871c0.178,0.242,0.48,0.363,0.904,0.363
		c0.814,0,1.223-0.418,1.223-1.254V8.314c0-0.286-0.205-0.429-0.611-0.429V7.762h1.508V7.886z"/>
	<path fill="#FFFFFF" stroke="#FFFFFF" stroke-width="0.25" stroke-miterlimit="10" d="M108.717,12.065h-1.807v-0.124
		c0.381,0,0.572-0.145,0.572-0.436V8.373l-1.67,3.692h-0.086l-1.631-3.536v3.01c0,0.269,0.211,0.402,0.631,0.402v0.124h-1.566
		v-0.124c0.434,0,0.65-0.145,0.65-0.436V8.309c0-0.282-0.217-0.423-0.65-0.423V7.762h1.318l1.498,3.292l1.439-3.292h1.301v0.124
		c-0.381,0-0.572,0.141-0.572,0.423v3.197c0,0.291,0.191,0.436,0.572,0.436V12.065z"/>
	<path fill="#FFFFFF" stroke="#FFFFFF" stroke-width="0.25" stroke-miterlimit="10" d="M112.639,12.065h-1.938v-0.124
		c0.426,0,0.637-0.145,0.637-0.436V8.309c0-0.282-0.211-0.423-0.637-0.423V7.762h1.938v0.124c-0.426,0-0.637,0.141-0.637,0.423
		v3.197c0,0.291,0.211,0.436,0.637,0.436V12.065z"/>
	<path fill="#FFFFFF" stroke="#FFFFFF" stroke-width="0.25" stroke-miterlimit="10" d="M119.152,7.886
		c-0.42,0-0.631,0.146-0.631,0.436v3.835l-0.09-0.001l-2.893-3.572v2.956c0,0.269,0.211,0.402,0.631,0.402v0.124h-1.547v-0.124
		c0.42,0,0.631-0.153,0.631-0.461V8.25c-0.109-0.135-0.176-0.213-0.203-0.234c-0.107-0.087-0.25-0.13-0.428-0.13V7.762h1.117
		l2.496,3.127v-2.6c0-0.269-0.211-0.403-0.631-0.403V7.762h1.547V7.886z"/>
	<path fill="#FFFFFF" stroke="#FFFFFF" stroke-width="0.25" stroke-miterlimit="10" d="M125.395,9.914
		c0,0.633-0.191,1.161-0.572,1.586c-0.398,0.438-0.908,0.656-1.527,0.656c-0.641,0-1.166-0.219-1.572-0.656
		c-0.391-0.425-0.586-0.953-0.586-1.586c0-0.659,0.197-1.197,0.592-1.615c0.395-0.419,0.906-0.628,1.533-0.628
		c0.646,0,1.162,0.208,1.551,0.624S125.395,9.251,125.395,9.914z M124.654,9.927c0-0.565-0.104-1.03-0.307-1.394
		c-0.238-0.414-0.58-0.621-1.027-0.621c-0.502,0-0.875,0.196-1.117,0.589c-0.217,0.346-0.326,0.821-0.326,1.426
		c0,0.574,0.117,1.045,0.352,1.412c0.242,0.385,0.574,0.577,0.994,0.577c0.469,0,0.832-0.21,1.092-0.629
		C124.541,10.92,124.654,10.467,124.654,9.927z"/>
	<path fill="#FFFFFF" stroke="#FFFFFF" stroke-width="0.25" stroke-miterlimit="10" d="M131.857,7.886
		c-0.408,0-0.611,0.137-0.611,0.409v2.327c0,0.555-0.188,0.964-0.564,1.229c-0.295,0.204-0.668,0.306-1.119,0.306
		c-0.473,0-0.844-0.11-1.117-0.332c-0.33-0.269-0.494-0.688-0.494-1.261V8.295c0-0.272-0.191-0.409-0.572-0.409V7.762h1.807v0.124
		c-0.381,0-0.572,0.13-0.572,0.39v2.354c0,0.386,0.074,0.676,0.221,0.871c0.178,0.242,0.48,0.363,0.904,0.363
		c0.814,0,1.223-0.418,1.223-1.254V8.314c0-0.286-0.205-0.429-0.611-0.429V7.762h1.508V7.886z"/>
	<path fill="#FFFFFF" stroke="#FFFFFF" stroke-width="0.25" stroke-miterlimit="10" d="M136.76,10.896
		c0,0.407-0.143,0.726-0.43,0.955c-0.25,0.204-0.568,0.306-0.955,0.306c-0.16,0-0.35-0.036-0.572-0.107
		c-0.221-0.071-0.363-0.107-0.428-0.107c-0.109,0-0.174,0.072-0.195,0.215h-0.143l-0.195-1.397h0.143
		c0.273,0.771,0.721,1.157,1.346,1.157c0.191,0,0.361-0.059,0.514-0.176c0.174-0.135,0.26-0.315,0.26-0.541
		c0-0.364-0.223-0.677-0.67-0.938l-0.623-0.364c-0.521-0.304-0.781-0.67-0.781-1.1c0-0.339,0.107-0.611,0.322-0.817
		s0.492-0.31,0.836-0.31c0.195,0,0.383,0.036,0.564,0.107s0.309,0.107,0.377,0.107c0.096,0,0.166-0.071,0.209-0.215h0.137
		l0.143,1.385h-0.156c-0.242-0.745-0.65-1.118-1.223-1.118c-0.182,0-0.336,0.056-0.461,0.166s-0.188,0.263-0.188,0.458
		c0,0.169,0.078,0.329,0.232,0.481c0.096,0.087,0.271,0.21,0.527,0.37l0.631,0.39C136.5,10.124,136.76,10.488,136.76,10.896z"/>
</g>
<g>
	<linearGradient id="XMLID_4_" gradientUnits="userSpaceOnUse" x1="40.0039" y1="34.7773" x2="80.9468" y2="34.7773">
		<stop  offset="0.1547" style="stop-color:#007AD8"/>
		<stop  offset="0.303" style="stop-color:#0761BA"/>
		<stop  offset="0.4973" style="stop-color:#0F4698"/>
		<stop  offset="0.6831" style="stop-color:#153280"/>
		<stop  offset="0.8551" style="stop-color:#192672"/>
		<stop  offset="1" style="stop-color:#1A226D"/>
	</linearGradient>
	<path id="XMLID_3_" fill="url(#XMLID_4_)" d="M80.947,29.369c-0.156,0.039-0.313,0.078-0.43,0.078
		c-0.508,0.117-1.017,0.195-1.486,0.313c-2.933,0.782-5.201,1.994-7.625,3.793c-0.978,0.704-1.643,1.135-2.503,1.447
		c-0.508,0.195-1.095,0.391-1.838,0.508c-1.643,0.313-3.363,0.196-5.358-0.273c0.548-0.858,1.33-1.33,2.269-1.524
		c0.313-0.078,0.665-0.078,1.017-0.117c2.737-0.313,6.101,0,7.586-4.379c-0.508,0.078-0.938,0.195-1.408,0.272
		c-2.62,0.509-4.927,0.353-7.586,0.195c-4.771-0.039-7.665,1.799-11.615,1.799c-2.151,0-4.419-0.978-6.257-2.071
		c-0.391-0.273-0.782-0.509-1.134-0.665c-1.564-0.587-2.972-0.471-4.575,0.665c0.039-0.039,1.33,0.547,2.503,1.682
		c1.017,0.978,2.111,2.464,2.229,2.58c1.799,1.916,3.559,3.402,5.67,4.615c3.637,2.071,7.469,3.011,11.653,2.854
		c3.715-0.156,7.235-1.096,10.441-2.973c1.643-0.979,3.167-2.189,4.497-3.48c0.978-0.979,2.269-2.543,3.168-3.949
		C80.478,30.229,80.751,29.799,80.947,29.369L80.947,29.369z"/>
	<linearGradient id="XMLID_5_" gradientUnits="userSpaceOnUse" x1="60.4673" y1="3.9482" x2="60.4673" y2="26.0312">
		<stop  offset="0" style="stop-color:#F2B72D"/>
		<stop  offset="0.2357" style="stop-color:#F2B52D"/>
		<stop  offset="0.3574" style="stop-color:#F1AD2B"/>
		<stop  offset="0.4531" style="stop-color:#F0A029"/>
		<stop  offset="0.5353" style="stop-color:#EF8D26"/>
		<stop  offset="0.6088" style="stop-color:#ED7422"/>
		<stop  offset="0.676" style="stop-color:#EB551C"/>
		<stop  offset="0.7385" style="stop-color:#E93116"/>
		<stop  offset="0.7958" style="stop-color:#E6090F"/>
		<stop  offset="0.8066" style="stop-color:#E5000E"/>
	</linearGradient>
	<path id="XMLID_2_" fill="url(#XMLID_5_)" d="M71.483,17.363c-0.039-0.743-0.196-1.486-0.391-2.19
		c-0.078-0.235-0.157-0.469-0.235-0.704c-0.704-1.877-1.955-3.52-3.559-4.732c0.508,0.705,0.782,1.525,0.782,2.426
		c0,0.352-0.039,0.743-0.156,1.056c-0.039,0.078-0.039,0.157-0.079,0.235c-0.078,0.234-0.195,0.508-0.313,0.704
		c-0.118,0.196-0.274,0.391-0.391,0.587c-0.978,1.173-2.737,1.095-3.754,0.117c-1.212-1.096-1.486-2.973-1.212-4.497
		c0.274-1.447,0.939-2.777,0.939-4.263c0-1.447-0.509-2.816-1.33-3.912c-0.274-0.352-0.587-0.664-0.899-0.978
		c0.039,0.313,0.078,0.665,0.078,1.017c0,0,0,0,0,0.039c0,2.112-0.938,3.989-2.386,5.318c-0.313,0.273-0.665,0.548-1.017,0.782
		c-0.196,0.116-0.352,0.235-0.547,0.313c0,0-0.039,0-0.039,0.038c-1.447,0.782-2.62,1.995-3.324,3.48
		c-1.173,2.542,0.195,4.849,2.268,6.53c0.078,0.039,0.156,0.117,0.196,0.156c0.234,0.196,0.352,0.508,0.352,0.821l0,0
		c0,0.469-0.313,0.899-0.743,1.095l0,0c-0.782,0.313-1.643-0.273-2.229-0.742c-0.626-0.47-1.173-1.018-1.604-1.644
		c-0.704-1.056-1.095-2.308-1.095-3.56c0-1.172,0.313-2.307,0.899-3.246c-1.408,1.8-2.268,4.029-2.268,6.453
		c0,4.81,3.285,8.836,7.782,10.207c0.078,0.039,0.196,0.039,0.274,0.078c0.313,0.077,0.625,0.116,0.938,0.116
		c1.017,0,1.955-0.391,2.659-1.016c0.782-0.705,1.251-1.683,1.251-2.777c0-0.819-0.274-1.563-0.743-2.188
		c-0.274-0.392-0.625-0.705-1.017-0.939c-0.078-0.039-0.118-0.078-0.157-0.117c-0.195-0.117-0.391-0.273-0.547-0.43
		c-0.156-0.117-0.313-0.273-0.469-0.43c-0.547-0.586-0.978-1.33-1.212-2.112c-0.078-0.195-0.117-0.431-0.156-0.665
		c-0.039-0.273-0.078-0.587-0.078-0.898c0-1.408,0.547-2.699,1.447-3.638c0.274-0.313,0.626-0.586,0.978-0.821
		c0,0.041,0.039,0.08,0.039,0.08c-0.195,0.547-0.313,1.133-0.313,1.76c0,0.117,0,0.233,0,0.352c0.039,0.43,0.117,0.859,0.273,1.251
		c0.391,1.134,1.173,2.073,2.19,2.738c0.079,0.038,0.157,0.077,0.235,0.155l0.039,0.039c0.704,0.431,1.251,1.057,1.643,1.76
		c0.117,0.195,0.195,0.431,0.273,0.666c0.078,0.272,0.157,0.547,0.196,0.86c0.039,0.234,0.039,0.431,0.039,0.664
		c0,1.291-0.547,2.464-1.408,3.324c-0.039,0.039-0.078,0.078-0.078,0.078c-0.157,0.194-0.274,0.43-0.274,0.703
		c0,0.588,0.469,1.057,1.095,1.057c0.157,0,0.274-0.039,0.43-0.078c0,0,0.039,0,0.039-0.038c3.911-1.644,6.648-5.396,6.648-9.777
		C71.522,17.833,71.522,17.598,71.483,17.363z"/>
</g>
</svg>
